<svg id="Lag_1" data-name="Lag 1" xmlns="http://www.w3.org/2000/svg" viewBox="0 0 264 272.55"><defs><style>.cls-1{fill:#fff;}.cls-2{fill:#2d2d2d;}.cls-3{fill:#868686;}.cls-4{fill:#5a5a5a;}.cls-5{fill:#f0f0f0;}</style></defs><title>Tegnebræt 1</title><path class="cls-1" d="M25,136.12c-2.6-.13-4.69.25-6.38-.4-4-1.54-7.74-3.77-11.74-5.32-2.14-.82-4.59-.81-6.91-1.18-.06,2.53-.88,5.35,0,7.54a27.69,27.69,0,0,0,30.22,17.71c3-.44,5.89-1.75,9-2.71.69,1.86,1.27,3.4,1.83,5,4.7,12.94,10.94,25.05,20.42,35.15S79.19,213,81.64,227.2c.35,2,.57,5.52-.4,6a9.22,9.22,0,0,1-6.88.25c-5.29-2-8.66-6.27-10.41-11.46-2.91-8.64-5.7-17.36-7.9-26.21-2.32-9.32-11.75-14.61-19.84-10.76a16.55,16.55,0,0,1-7.34,1.5c-11.46-.35-17.2,5.92-14,16.9,1.57,5.33,5.23,10.14,8.41,14.87,3,4.51,6.88,8.47,10,12.95,5.09,7.39,9.64,15.15,14.79,22.49,7.09,10.11,16.71,16.15,29.07,18.46,20.6,3.86,41.66-7.11,46-26.21,2.13-9.3,1.55-19.44.86-29.11-.51-7.23-3.15-14.31-4.54-20.2,3.47.65,7.22,2.4,10.45,1.72,6.38-1.36,11.66-5,13.18-12.07,2.06-9.62,8.39-14.76,17.53-17,2.42-.59,4.93-.76,7.37-1.24,13-2.56,25.16-7,35.48-18.1,1.52,7.52,2.79,13.73,4.29,21.15l12.27-8.39v19.82c5.14.41,9.13-1.83,12.45-5.27,11.2-11.61,19.37-25,22.47-41,2-10.59,2.46-21.54,5-32,4.31-18,5.75-35.73,1-53.78C255,27.89,240,10.33,217.05,2,197.51-5.07,174.78.74,166.39,20c-28.78-18.89-57-14.73-84.82,2.43-1.16-.88-2.23-1.66-3.27-2.48A33.13,33.13,0,0,0,25.91,35.35c-8.79,28.21-11.21,57-10.77,86.26,0,1.43,1.05,2.85,1.88,5,1.07-4.22,1.85-7.29,2.62-10.36l1.23.28Z"/><path class="cls-2" d="M25,136.12l-4.15-19.61-1.23-.28c-.77,3.07-1.55,6.14-2.62,10.36-.83-2.13-1.85-3.55-1.88-5-.44-29.25,2-58,10.77-86.26A33.13,33.13,0,0,1,78.3,20c1,.82,2.11,1.6,3.27,2.48,27.83-17.16,56-21.32,84.82-2.43C174.78.74,197.51-5.07,217.05,2,240,10.33,255,27.89,261,50.61c4.72,18,3.28,35.82-1,53.78-2.52,10.45-2.93,21.4-5,32-3.1,16-11.27,29.37-22.47,41-3.32,3.44-7.31,5.68-12.45,5.27V162.81l-12.27,8.39c-1.5-7.42-2.77-13.63-4.29-21.15C193.18,161.18,181,165.59,168,168.15c-2.44.48-5,.65-7.37,1.24-9.14,2.21-15.47,7.35-17.53,17-1.52,7.07-6.8,10.71-13.18,12.07-3.23.68-7-1.07-10.45-1.72,1.39,5.89,4,13,4.54,20.2.69,9.67,1.27,19.81-.86,29.11-4.38,19.1-25.44,30.07-46,26.21-12.36-2.31-22-8.35-29.07-18.46-5.15-7.34-9.7-15.1-14.79-22.49-3.08-4.48-6.94-8.44-10-12.95-3.18-4.73-6.84-9.54-8.41-14.87-3.23-11,2.51-17.25,14-16.9a16.55,16.55,0,0,0,7.34-1.5c8.09-3.85,17.52,1.44,19.84,10.76,2.2,8.85,5,17.57,7.9,26.21,1.75,5.19,5.12,9.5,10.41,11.46a9.22,9.22,0,0,0,6.88-.25c1-.52.75-4,.4-6C79.19,213,71,202.09,61.41,191.87S45.69,169.66,41,156.72c-.56-1.56-1.14-3.1-1.83-5-3.1,1-6,2.27-9,2.71A27.69,27.69,0,0,1,0,136.76c-.84-2.19,0-5,0-7.54,2.32.37,4.77.36,6.91,1.18,4,1.55,7.74,3.78,11.74,5.32C20.33,136.37,22.42,136,25,136.12ZM62.32,68.7c3.88-6,9-3.65,14.22-1.74-3.22-8.1-9.64-10.85-14.5-6.55-6.82,6-7.93,18.94-2.12,26.58l4.23-2.14c-6.17-7.62-6.6-10.18-2.86-15.44v5.38l7-6.37-.89-1.5Zm57.56-6c-.24,2-.47,4.08-.62,5.3H127l.87-7.4-8.13,2.25c6-6.1,11.33-6.17,22,.54-1.95-3.68-3-6.5-4.72-8.73-6.24-7.93-12.75-7.81-18.7.26-6.5,8.82-6.24,18.34-2,27.91,1.87,4.23,9.32,5.13,13,2C116.11,79.11,112.92,71.62,119.88,62.67Zm50.2,97c10.45-3.35,17-10.83,22.79-19.41,4.29-6.42,6.35-13.23,4.12-20.82-1.92-6.53-4.3-12.93-6.17-19.48-.93-3.28-2.21-7-1.55-10.1,2.18-10.36,1.42-20.56-.43-30.74-.94-5.17-2.75-10.18-4-15.29-.67-2.74-1.74-5.66-1.34-8.31.94-6.25,5.3-10.28,10.71-13,14.17-7,27.46-4.59,39.86,4.39a29.53,29.53,0,0,1,11.61,17.18c-2.55,1.67-4.93,2.56-6.33,4.26a208.18,208.18,0,0,0-13.69,17.83c-6.09,9.2-10.27,19.27-8.13,30.62,1.66,8.82,3.81,17.59,6.33,26.21,2.42,8.26,2.85,16.33.29,24.57a14.28,14.28,0,0,0-.89,5.36c.77,7.78,1.8,15.53,2.79,23.79,3-2.39,6.67-4.72,9.59-7.75,8.35-8.68,12.66-19.5,15-31.08,2.21-11.08,3.51-22.35,5.9-33.4,5.17-23.91,4.55-47.09-5.72-69.81-7.29-16.14-21.51-27-39.09-30.59-12.77-2.58-22.43-2.72-33.05,6.27-4.18,3.54-7.22,8.44-11.08,13.08a77.36,77.36,0,0,0-44.31-12.26C106.82,11.79,92.19,17,79.4,28.47L85.35,31a12.34,12.34,0,0,1-6.69,1C63,30.08,49.72,38.18,45,53c-1,3.14-.45,6.77-.62,10.18l1.42,0c8.55-14,17-17.89,24.91-10.33-9.27-.16-15.49,3.74-19.26,11.46C47.91,71.6,48.15,83,52.43,86,51.32,77.75,51.25,70,56.28,62.88c3-4.28,6.62-6.91,12-6.76s7.92,4,9.68,8.17c2,4.81,3.4,9.92,4.85,14.27l27.63,2.78c-.27-1.52-.54-3.26-.9-5a27.73,27.73,0,0,1,5.75-23.93c5.38-6.8,13.81-7.91,20.73-2.77,6.52,4.85,9.7,11.24,9.36,19.38-.08,1.94,0,3.89,0,6h9.14a77.94,77.94,0,0,0-25.86,14.32c-2.85,2.4-5.76,2.35-9.26.87-5.64-2.39-11.43-4.88-17.4-6-17.81-3.19-34.61-1.2-48.19,12.42A35.56,35.56,0,0,0,44,113.15c16.65-14.31,33.82-13.21,51.52-4.94,2.55,1.18,5.61,2.55,3.88,7.16a23.38,23.38,0,0,1-4-2.13c-9.76-8.08-21.13-9.76-33-7.34-19,3.87-24.42,15-21.5,32.86,6.53-3.26,13-7.56,20.06-9.77,12.52-3.91,24.4-1.59,34.51,7.23,1.43,1.25,2.14,3.3,3.18,5l-1.76,1.29c-1.62-1.49-3.17-3.07-4.88-4.44-2.44-2-4.75-4.33-7.54-5.49-12.41-5.13-33.26-.08-42,10a4.54,4.54,0,0,0-1,3.49c1.45,5.55,3.2,11,5,17,2.35-1.54,3.79-2.64,5.37-3.48,11.27-6.05,23-7.7,34.95-2.46,2.27,1,3.87,3.51,5.78,5.33l-1,1.5c-15-10.34-29.37-9.08-44.08,2L60,185.41c12.38-8.1,28.3-9.94,33.79-3.63C83,182.24,72,179.5,62.61,187c4.79,5.43,9.25,10.47,13.7,15.5,9-7.71,18.42-9.62,24.48-4.19-8.73.34-17,.48-22.57,7.94l3.63,7.8c7.08-4.86,12.87-5.7,17.61-1.82-3.26.55-5.76.94-8.25,1.39-8.73,1.59-10.55,6.26-5.79,13.1l15.27-4,.6,1.9-14,5.66c4.49,2.42,9.42,2.66,11.24,8.78-3.93-1.18-6.86-2.46-9.91-2.82-1.78-.22-4.43.46-5.48,1.73-3.34,4.05-7.29,5-12,3.7a16.11,16.11,0,0,1-11.61-11.43c-2.14-7.64-3-15.63-4.77-23.38-1.06-4.63-2.07-9.53-4.44-13.52-3.28-5.53-8-7-11.56-5.28-4.4,2.17-5.44,6.15-3.36,13,.15.48.36.94.48,1.42.76,3.21-1,4.39-3.78,4.26-6.42-.31-10.3-5.21-9.35-11.54.15-1,.13-2,.2-3.28-4.12,1.22-5.83,3.81-5.09,7.3s1.68,7.22,3.62,10.11c7.43,11,16,21.34,22.81,32.73S72,266,89.53,262.32c14.77-3.1,25.86-15,25.5-30.15-.21-9.07-2.21-18.11-3.6-27.13-2.25-14.72-2.57-29,8.09-41.15,3.52-4,7.32-7.76,11.22-11.38s5.71-6.91,4.32-12.6c-2-8,.08-10.09,7.62-10.26,1.82-9.06-3.07-20.17,8.68-27.51l-.91,4.91c-1.77,9.51-.15,13.47,8.69,17,5.63,2.24,11.82,3.07,17.78,4.43,1.83.42,3.73.52,7.46,1-2.69,3.65-4.52,6.09-6.31,8.57a12.67,12.67,0,0,0-2,3.16C174,147.16,172.16,153.18,170.08,159.68ZM46,85.52c-2.13-6.72,1.23-14.64-4.46-21.34-1.64-1.93-.91-6-1.07-9.06-.2-3.59,0-7.22-.38-10.77-.15-1.15-1.86-2.11-3.36-3.69C37,31.82,46.43,23.4,55.53,26.1a39.21,39.21,0,0,0,16.49,1c2.4-.3,4.65-1.83,7-2.81l-.29-1.65c-3.15-1.79-6.17-3.9-9.49-5.31-13.47-5.7-31.71.28-36.5,12.55C22.77,55.27,19.9,82,19.81,108.74c1.91,1.67,3.71,3.39,4.31,5.45,1.6,5.58,2.77,11.28,3.94,17,.75,3.65,2.36,3.92,5.25,1.65-1.28-2.63-2.57-5.12-3.73-7.66-4.2-9.19-3.54-18.34,0-27.6,2.8-7.38,8.81-9.88,15.75-11.28C45.44,86.24,45.53,86,46,85.52Zm93.34,45.37c-1.16,1.41-1.61,1.75-1.75,2.18a5.91,5.91,0,0,0-.26,2,33.35,33.35,0,0,0,6.49,19.59,10.68,10.68,0,0,0,15.53,1.44c4.4-4,7.39-9.06,7.55-15.22A5.17,5.17,0,0,0,165,137c-3-1.94-6.34-3.4-9.64-5.1-1,4.82-1.92,9.75-3.21,16.33-2.72-3.13-5-5.47-7-8.09S141.53,134.39,139.36,130.89Zm-137-.28c.91,11.88,6.83,18.6,18.87,20.39C34.75,153,40,150,37.8,136c0-.12-.18-.22-.28-.34C25.11,141.57,13.79,138.14,2.39,130.61ZM53.65,91.4c-8.81-3.39-16.7-.7-21,6.54-5.76,9.71-4.42,23.13,3.21,29.17C33.36,111.22,38.82,99.31,53.65,91.4Zm97.08,74.77c-4.31-3.74-8.09-2.64-11.33,1.62s-6.64,8.68-9.6,13.26c-.75,1.15-.09,3.2-.08,4.84,1.58-.44,3.69-.39,4.65-1.42C139.91,178.59,145.17,172.45,150.73,166.17ZM131.06,81.93c4.28.87,10.65-3.6,10.48-7.83a3,3,0,0,0-1.12-2,1.79,1.79,0,0,0-1.71.36C136.06,75.65,133.51,78.87,131.06,81.93ZM77.79,74.69l-5.12,7.39C76.63,81.73,79.41,80.45,77.79,74.69Z"/><path class="cls-3" d="M170.08,159.68c2.08-6.5,3.95-12.52,6-18.48a12.67,12.67,0,0,1,2-3.16c1.79-2.48,3.62-4.92,6.31-8.57-3.73-.48-5.63-.58-7.46-1-6-1.36-12.15-2.19-17.78-4.43-8.84-3.52-10.46-7.48-8.69-17l.91-4.91c-11.75,7.34-6.86,18.45-8.68,27.51-7.54.17-9.58,2.21-7.62,10.26,1.39,5.69-.55,9.1-4.32,12.6s-7.7,7.39-11.22,11.38c-10.66,12.1-10.34,26.43-8.09,41.15,1.39,9,3.39,18.06,3.6,27.13.36,15.13-10.73,27.05-25.5,30.15C72,266,51.09,253.36,44.3,242s-15.38-21.7-22.81-32.73c-1.94-2.89-2.88-6.62-3.62-10.11s1-6.08,5.09-7.3c-.07,1.25-.05,2.28-.2,3.28-1,6.33,2.93,11.23,9.35,11.54,2.78.13,4.54-1,3.78-4.26-.12-.48-.33-.94-.48-1.42-2.08-6.8-1-10.78,3.36-13,3.59-1.76,8.28-.25,11.56,5.28,2.37,4,3.38,8.89,4.44,13.52,1.77,7.75,2.63,15.74,4.77,23.38a16.11,16.11,0,0,0,11.61,11.43c4.75,1.33,8.7.35,12-3.7,1-1.27,3.7-1.95,5.48-1.73,3,.36,6,1.64,9.91,2.82-1.82-6.12-6.75-6.36-11.24-8.78l14-5.66-.6-1.9-15.27,4c-4.76-6.84-2.94-11.51,5.79-13.1,2.49-.45,5-.84,8.25-1.39-4.74-3.88-10.53-3-17.61,1.82l-3.63-7.8c5.58-7.46,13.84-7.6,22.57-7.94-6.06-5.43-15.51-3.52-24.48,4.19-4.45-5-8.91-10.07-13.7-15.5,9.37-7.48,20.36-4.74,31.15-5.2-5.49-6.31-21.41-4.47-33.79,3.63L47.4,165.89c14.71-11,29-12.31,44.08-2l1-1.5c-1.91-1.82-3.51-4.34-5.78-5.33-12-5.24-23.68-3.59-34.95,2.46-1.58.84-3,1.94-5.37,3.48-1.8-6-3.55-11.46-5-17a4.54,4.54,0,0,1,1-3.49c8.76-10.05,29.61-15.1,42-10,2.79,1.16,5.1,3.54,7.54,5.49,1.71,1.37,3.26,2.95,4.88,4.44l1.76-1.29c-1-1.68-1.75-3.73-3.18-5C85.38,127.4,73.5,125.08,61,129c-7.09,2.21-13.53,6.51-20.06,9.77-2.92-17.83,2.55-29,21.5-32.86,11.87-2.42,23.24-.74,33,7.34a23.38,23.38,0,0,0,4,2.13c1.73-4.61-1.33-6-3.88-7.16-17.7-8.27-34.87-9.37-51.52,4.94a35.56,35.56,0,0,1,9.77-16.42C67.36,83.11,84.16,81.12,102,84.31c6,1.07,11.76,3.56,17.4,6,3.5,1.48,6.41,1.53,9.26-.87a77.94,77.94,0,0,1,25.86-14.32h-9.14c0-2.15-.07-4.1,0-6,.34-8.14-2.84-14.53-9.36-19.38-6.92-5.14-15.35-4-20.73,2.77a27.73,27.73,0,0,0-5.75,23.93c.36,1.73.63,3.47.9,5L82.79,78.56C81.34,74.21,80,69.1,77.94,64.29c-1.76-4.17-4.29-8-9.68-8.17s-8.93,2.48-12,6.76c-5,7.08-5,14.87-3.85,23.15-4.28-3-4.52-14.43-1-21.7,3.77-7.72,10-11.62,19.26-11.46-7.89-7.56-16.36-3.64-24.91,10.33l-1.42,0c.17-3.41-.38-7,.62-10.18,4.71-14.82,18-22.92,33.65-21a12.34,12.34,0,0,0,6.69-1L79.4,28.47C92.19,17,106.82,11.79,123.25,11.22a77.36,77.36,0,0,1,44.31,12.26c3.86-4.64,6.9-9.54,11.08-13.08,10.62-9,20.28-8.85,33.05-6.27,17.58,3.54,31.8,14.45,39.09,30.59,10.27,22.72,10.89,45.9,5.72,69.81-2.39,11-3.69,22.32-5.9,33.4-2.31,11.58-6.62,22.4-15,31.08-2.92,3-6.58,5.36-9.59,7.75-1-8.26-2-16-2.79-23.79a14.28,14.28,0,0,1,.89-5.36c2.56-8.24,2.13-16.31-.29-24.57-2.52-8.62-4.67-17.39-6.33-26.21-2.14-11.35,2-21.42,8.13-30.62a208.18,208.18,0,0,1,13.69-17.83c1.4-1.7,3.78-2.59,6.33-4.26a29.53,29.53,0,0,0-11.61-17.18c-12.4-9-25.69-11.44-39.86-4.39-5.41,2.7-9.77,6.73-10.71,13-.4,2.65.67,5.57,1.34,8.31,1.26,5.11,3.07,10.12,4,15.29,1.85,10.18,2.61,20.38.43,30.74-.66,3.13.62,6.82,1.55,10.1,1.87,6.55,4.25,13,6.17,19.48,2.23,7.59.17,14.4-4.12,20.82C187.13,148.85,180.53,156.33,170.08,159.68ZM145.85,52.09c.52-10.89-6.65-18.52-18.31-19.49-9.71-.81-13.82,1.94-14.71,9.24,6-.45,12.68-2.57,18.18-.9S140.79,48.09,145.85,52.09ZM108.36,27c23.69-9.17,41.88-3.87,53.79,18.84,2-7.37-6-18.51-17.25-23.73C131.73,16,114,18.18,108.36,27Z"/><path class="cls-4" d="M46,85.52c-.49.52-.58.72-.71.75-6.94,1.4-13,3.9-15.75,11.28-3.52,9.26-4.18,18.41,0,27.6,1.16,2.54,2.45,5,3.73,7.66-2.89,2.27-4.5,2-5.25-1.65-1.17-5.69-2.34-11.39-3.94-17-.6-2.06-2.4-3.78-4.31-5.45.09-26.78,3-53.47,12.9-78.87,4.79-12.27,23-18.25,36.5-12.55,3.32,1.41,6.34,3.52,9.49,5.31L79,24.28c-2.32,1-4.57,2.51-7,2.81a39.21,39.21,0,0,1-16.49-1C46.43,23.4,37,31.82,36.75,40.66c1.5,1.58,3.21,2.54,3.36,3.69.43,3.55.18,7.18.38,10.77.16,3.09-.57,7.13,1.07,9.06C47.25,70.88,43.89,78.8,46,85.52Z"/><path class="cls-1" d="M139.36,130.89c2.17,3.5,3.8,6.51,5.81,9.25s4.23,5,7,8.09c1.29-6.58,2.26-11.51,3.21-16.33,3.3,1.7,6.62,3.16,9.64,5.1a5.17,5.17,0,0,1,1.95,3.84c-.16,6.16-3.15,11.21-7.55,15.22a10.68,10.68,0,0,1-15.53-1.44A33.35,33.35,0,0,1,137.35,135a5.91,5.91,0,0,1,.26-2C137.75,132.64,138.2,132.3,139.36,130.89Z"/><path class="cls-1" d="M2.39,130.61c11.4,7.53,22.72,11,35.13,5,.1.11.26.21.28.33C40,150,34.75,153,21.26,151,9.22,149.21,3.3,142.49,2.39,130.61Z"/><path class="cls-5" d="M119.87,62.68c-7,8.94-3.76,16.43,9.41,22.09-3.67,3.16-11.12,2.26-13-2-4.22-9.57-4.48-19.09,2-27.91,6-8.07,12.46-8.19,18.7-.26,1.76,2.23,2.77,5,4.72,8.73-10.69-6.71-16-6.64-22-.54Z"/><path class="cls-3" d="M53.65,91.4c-14.83,7.91-20.29,19.82-17.8,35.71-7.63-6-9-19.46-3.21-29.17C37,90.7,44.84,88,53.65,91.4Z"/><path class="cls-3" d="M150.73,166.17c-5.56,6.28-10.82,12.42-16.36,18.3-1,1-3.07,1-4.65,1.42,0-1.64-.67-3.69.08-4.84,3-4.58,6.31-8.91,9.6-13.26S146.42,162.43,150.73,166.17Z"/><path class="cls-1" d="M61.29,69.41c-3.74,5.26-3.31,7.82,2.86,15.44L59.92,87c-5.81-7.64-4.7-20.55,2.12-26.58,4.86-4.3,11.28-1.55,14.5,6.55-5.19-1.91-10.34-4.21-14.22,1.74Z"/><path class="cls-1" d="M119.71,62.82l8.13-2.25L127,68h-7.71c.15-1.22.38-3.26.61-5.29Z"/><path class="cls-1" d="M131.06,81.93c2.45-3.06,5-6.28,7.65-9.43a1.79,1.79,0,0,1,1.71-.36,3,3,0,0,1,1.12,2C141.71,78.33,135.34,82.8,131.06,81.93Z"/><path class="cls-1" d="M61.29,69.41l1-.71,5.05-1.78.89,1.5-7,6.37Z"/><path class="cls-1" d="M77.79,74.69c1.62,5.76-1.16,7-5.12,7.39Z"/><path d="M145.85,52.09c-5.06-4-9.37-9.48-14.84-11.15s-12.15.45-18.18.9c.89-7.3,5-10.05,14.71-9.24C139.2,33.57,146.37,41.2,145.85,52.09Z"/><path d="M108.36,27c5.65-8.8,23.37-11,36.54-4.89,11.21,5.22,19.27,16.36,17.25,23.73C150.24,23.11,132.05,17.81,108.36,27Z"/></svg>